<svg width="512" height="512" viewBox="0 0 512 512" fill="none" xmlns="http://www.w3.org/2000/svg">
<path d="M255.999 79.3096L98.9414 432.69H177.47L206.919 354.161H305.08L334.528 432.69H413.057L255.999 79.3096ZM255.999 197.103L295.264 295.264H216.735L255.999 197.103Z" fill="black"/>
<path d="M123.539 177.471C123.539 153.097 135.806 127.917 161.096 115.272C168.34 111.65 177.15 114.586 180.772 121.831C184.395 129.076 181.459 137.886 174.214 141.508C160.238 148.496 152.873 162.581 152.873 177.471C152.873 185.571 146.306 192.137 138.206 192.137C130.106 192.137 123.539 185.571 123.539 177.471ZM359.126 177.471C359.126 162.581 351.76 148.496 337.785 141.508C330.54 137.886 327.604 129.076 331.226 121.831C334.849 114.586 343.658 111.65 350.903 115.272C376.192 127.917 388.46 153.097 388.46 177.471C388.46 185.571 381.893 192.137 373.793 192.137C365.693 192.137 359.126 185.571 359.126 177.471Z" fill="black"/>
</svg>
