<svg width="512" height="512" viewBox="0 0 512 512" fill="none" xmlns="http://www.w3.org/2000/svg">
<path d="M141.316 318.094L215.866 276.266L217.119 272.634L215.866 270.613L212.233 270.612L199.774 269.844L157.179 268.692L120.237 267.158L84.4464 265.239L75.4413 263.321L67 252.192L67.8694 246.642L75.4423 241.55L86.2896 242.497L110.26 244.133L146.229 246.615L172.324 248.151L210.981 252.167H217.119L217.99 249.686L215.891 248.151L214.254 246.615L177.031 221.39L136.737 194.732L115.632 179.382L104.222 171.606L98.4657 164.314L95.985 148.402L106.346 136.992L120.263 137.939L123.819 138.886L137.916 149.732L168.027 173.039L207.347 201.999L213.103 206.783L215.406 205.146L215.687 203.995L213.103 199.672L191.716 161.015L168.896 121.695L158.739 105.398L156.053 95.6256C155.107 91.6094 154.416 88.2329 154.416 84.1134L166.21 68.0982L172.733 66L188.467 68.0982L195.094 73.8543L204.866 96.2147L220.702 131.417L245.262 179.283L252.451 193.481L256.288 206.631L257.722 210.647L260.2 210.646V208.344L262.222 181.379L265.956 148.275L269.589 105.679L270.843 93.6813L276.777 79.3027L288.571 71.5263L297.78 75.9272L305.353 86.7734L304.305 93.7835L299.802 123.05L290.976 168.894L285.22 199.594H288.573L292.411 195.757L307.939 175.137L334.035 142.519L345.547 129.574L358.978 115.274L367.599 108.468L383.894 108.467L395.892 126.298L390.521 144.718L373.738 166.002L359.821 184.038L339.866 210.9L327.407 232.389L328.559 234.104L331.527 233.823L376.604 224.228L400.958 219.829L430.021 214.841L443.171 220.98L444.604 227.222L439.436 239.989L408.353 247.664L371.897 254.955L317.609 267.799L316.944 268.284L317.712 269.231L342.169 271.533L352.632 272.096H378.24L425.927 275.653L438.385 283.891L445.856 293.971L444.603 301.646L425.416 311.418L399.526 305.278L339.098 290.901L318.376 285.733L315.511 285.732V287.446L332.78 304.331L364.425 332.907L404.053 369.746L406.074 378.855L400.983 386.043L395.612 385.276L360.793 359.078L347.362 347.286L316.943 321.676L314.923 321.675V324.362L321.933 334.621L358.952 390.264L360.87 407.327L358.185 412.879L348.59 416.23L338.05 414.312L316.382 383.893L294.021 349.638L275.986 318.938L273.786 320.191L263.144 434.829L258.155 440.687L246.643 445.088L237.049 437.796L231.958 426.003L237.049 402.696L243.189 372.279L248.177 348.103L252.68 318.068L255.366 308.09L255.187 307.425L252.988 307.707L230.346 338.79L195.912 385.325L168.665 414.49L162.142 417.075L150.833 411.215L151.883 400.753L158.202 391.441L195.912 343.473L218.655 313.745L233.339 296.578L233.237 294.097H232.367L132.211 359.129L114.379 361.432L106.704 354.242L107.651 342.449L111.284 338.612L141.394 317.889L141.292 317.992L141.316 318.094Z" fill="black"/>
</svg>
