<svg width="512" height="512" viewBox="0 0 512 512" fill="none" xmlns="http://www.w3.org/2000/svg">
<path d="M404.24 224.586C408.107 212.937 409.443 200.596 408.16 188.389C406.877 176.181 403.005 164.388 396.801 153.797C387.602 137.784 373.556 125.106 356.687 117.592C339.819 110.078 320.999 108.115 302.943 111.986C292.688 100.577 279.611 92.0667 265.026 87.3099C250.442 82.5531 234.862 81.7169 219.852 84.8855C204.842 88.054 190.93 95.1157 179.512 105.362C168.094 115.607 159.573 128.677 154.804 143.257C142.774 145.724 131.409 150.729 121.469 157.94C111.529 165.15 103.242 174.399 97.1626 185.068C87.8626 201.054 83.8881 219.584 85.8137 237.977C87.7394 256.371 95.4655 273.676 107.875 287.389C103.989 299.034 102.635 311.375 103.903 323.585C105.171 335.796 109.032 347.595 115.228 358.193C124.439 374.211 138.498 386.892 155.379 394.406C172.26 401.92 191.091 403.88 209.158 400.004C217.306 409.185 227.32 416.522 238.531 421.524C249.741 426.526 261.89 429.079 274.166 429.012C292.673 429.028 310.707 423.164 325.665 412.264C340.623 401.365 351.73 385.995 357.384 368.372C369.409 365.899 380.769 360.891 390.706 353.681C400.643 346.472 408.929 337.226 415.01 326.561C424.2 310.6 428.107 292.142 426.172 273.826C424.238 255.511 416.561 238.276 404.24 224.586ZM274.166 406.376C259.013 406.402 244.334 401.093 232.701 391.382L234.734 390.214L303.635 350.451C305.347 349.444 306.768 348.01 307.759 346.289C308.75 344.568 309.276 342.619 309.287 340.633V243.502L338.41 260.342C338.554 260.415 338.679 260.521 338.774 260.651C338.869 260.781 338.932 260.932 338.958 261.091V341.584C338.92 358.756 332.081 375.214 319.939 387.357C307.796 399.5 291.338 406.338 274.166 406.376ZM134.893 346.89C127.288 333.764 124.557 318.377 127.18 303.436L129.227 304.661L198.186 344.439C199.891 345.439 201.832 345.966 203.809 345.966C205.785 345.966 207.726 345.439 209.431 344.439L293.673 295.866V329.488C293.667 329.663 293.621 329.835 293.538 329.99C293.456 330.145 293.339 330.279 293.197 330.382L223.416 370.621C208.526 379.193 190.843 381.509 174.248 377.06C157.652 372.611 143.499 361.761 134.893 346.89ZM116.727 196.833C124.382 183.621 136.466 173.544 150.839 168.387V250.235C150.814 252.212 151.32 254.159 152.304 255.873C153.287 257.587 154.714 259.006 156.433 259.981L240.27 308.352L211.147 325.191C210.989 325.275 210.814 325.318 210.635 325.318C210.457 325.318 210.281 325.275 210.123 325.191L140.487 285.024C125.712 276.414 114.93 262.324 110.481 245.812C106.033 229.3 108.277 211.7 116.727 196.833ZM356.014 252.412L271.917 203.58L300.968 186.798C301.126 186.715 301.301 186.671 301.48 186.671C301.658 186.671 301.834 186.715 301.992 186.798L371.628 227.037C382.282 233.178 390.968 242.224 396.672 253.117C402.376 264.011 404.862 276.303 403.84 288.557C402.818 300.811 398.33 312.522 390.9 322.32C383.47 332.118 373.405 339.6 361.882 343.891V262.029C361.821 260.054 361.249 258.13 360.22 256.444C359.191 254.758 357.742 253.369 356.014 252.412ZM384.993 208.828L382.96 207.603L314.131 167.493C312.415 166.487 310.462 165.956 308.472 165.956C306.483 165.956 304.53 166.487 302.813 167.493L218.644 216.066V182.43C218.627 182.26 218.655 182.089 218.726 181.935C218.797 181.78 218.908 181.647 219.048 181.55L288.684 141.369C299.358 135.226 311.56 132.248 323.864 132.783C336.168 133.318 348.065 137.343 358.166 144.39C368.266 151.436 376.153 161.211 380.903 172.574C385.654 183.936 387.072 196.415 384.993 208.554V208.828ZM202.756 268.444L173.633 251.662C173.486 251.575 173.361 251.455 173.267 251.313C173.172 251.171 173.11 251.01 173.085 250.841V170.578C173.109 158.267 176.636 146.217 183.253 135.835C189.869 125.454 199.304 117.169 210.453 111.949C221.603 106.728 234.007 104.788 246.219 106.355C258.43 107.921 269.943 112.929 279.414 120.795L277.367 121.948L208.48 161.712C206.765 162.717 205.341 164.15 204.348 165.871C203.355 167.593 202.826 169.543 202.814 171.53L202.756 268.444ZM218.572 234.347L256.086 212.721L293.673 234.347V277.585L256.231 299.211L218.644 277.585L218.572 234.347Z" fill="black"/>
</svg>
