<svg width="512" height="512" viewBox="0 0 512 512" fill="none" xmlns="http://www.w3.org/2000/svg">
<path fill-rule="evenodd" clip-rule="evenodd" d="M153.089 180.849C182.453 55.0175 353.125 55.2299 387.26 180.214C392.242 198.554 411.642 287.389 363.62 374.526C341.782 414.069 281.04 452.122 264.82 401.134C209.725 446.586 135.037 427.126 169.997 349.521L165.491 351.524C115.032 369.969 110.898 334.456 120.65 316.009C127.011 304.136 130.933 297.141 133.901 289.188C138.883 275.408 140.367 267.034 142.275 253.889C146.091 227.917 146.199 202.899 153.089 180.849ZM271.413 180.963C266.538 180.963 262.616 182.977 259.966 187.005C256.891 191.563 255.301 198.666 255.301 207.677C255.301 217.641 257.421 234.39 271.413 234.39H271.521C282.228 234.39 288.693 224.426 288.693 207.677C288.693 198.878 286.89 191.776 283.498 187.111C280.531 182.977 276.291 180.963 271.413 180.963ZM329.063 180.963C324.189 180.963 320.266 182.977 317.616 187.005C314.541 191.563 312.951 198.666 312.951 207.677C312.951 217.641 315.071 234.39 329.063 234.39H329.171C339.878 234.39 346.343 224.426 346.343 207.677C346.343 198.878 344.541 191.776 341.148 187.111C338.181 182.977 333.941 180.963 329.063 180.963Z" fill="black"/>
</svg>
