<svg width="512" height="512" viewBox="0 0 512 512" fill="none" xmlns="http://www.w3.org/2000/svg">
<path fill-rule="evenodd" clip-rule="evenodd" d="M256 205.125C269.493 205.125 282.429 210.489 291.97 220.03C301.511 229.571 306.875 242.507 306.875 256C306.875 269.493 301.511 282.429 291.97 291.97C282.429 301.511 269.493 306.875 256 306.875C242.507 306.875 229.571 301.511 220.03 291.97C210.489 282.429 205.125 269.493 205.125 256C205.125 242.507 210.489 229.571 220.03 220.03C229.571 210.489 242.507 205.125 256 205.125ZM256 232.875C249.867 232.875 243.987 235.313 239.65 239.65C235.313 243.987 232.875 249.867 232.875 256C232.875 262.133 235.313 268.013 239.65 272.35C243.987 276.687 249.867 279.125 256 279.125C262.133 279.125 268.013 276.687 272.35 272.35C276.687 268.013 279.125 262.133 279.125 256C279.125 249.867 276.687 243.987 272.35 239.65C268.013 235.313 262.133 232.875 256 232.875Z" fill="black"/>
<path fill-rule="evenodd" clip-rule="evenodd" d="M256 71C358.12 71 441 153.88 441 256C441 358.12 358.12 441 256 441C153.88 441 71 358.12 71 256C71 153.88 153.88 71 256 71ZM256 145C194.765 145 145 194.765 145 256C145 317.235 194.765 367 256 367C286.71 367 314.464 354.609 334.444 334.444L360.586 360.586C374.624 346.549 385.837 329.707 393.359 310.994C389.383 320.855 384.379 330.197 378.472 338.889L378.002 338.419C377.635 338.898 377.249 339.372 376.81 339.81C371.392 345.229 362.608 345.229 357.19 339.81L320.19 302.81C314.771 297.392 314.771 288.608 320.19 283.19C325.608 277.771 334.392 277.771 339.81 283.19L357.244 300.624C363.54 286.624 366.92 271.444 367 256C367 194.765 317.235 145 256 145Z" fill="black"/>
</svg>
