<svg width="512" height="512" viewBox="0 0 512 512" fill="none" xmlns="http://www.w3.org/2000/svg">
<g clip-path="url(#clip0_440_9)">
<path d="M502.4 108.1C476.719 108.057 455.881 128.857 455.881 154.532V258.374C455.881 279.11 438.739 295.908 418.34 295.908C406.223 295.908 394.123 289.807 386.942 279.569L280.887 128.096C272.087 115.518 257.769 108.021 242.268 108.021C218.089 108.021 196.331 128.576 196.331 153.952V258.393C196.331 279.129 179.33 295.927 158.793 295.927C146.633 295.927 134.551 289.826 127.373 279.59L8.69547 110.08C6.02027 106.24 0 108.138 0 112.819V203.383C0 207.963 1.39947 212.403 4.0192 216.162L120.815 382.952C127.714 392.808 137.894 400.13 149.634 402.788C179.012 409.465 206.052 386.852 206.052 358.037V253.653C206.052 232.917 222.852 216.121 243.59 216.121H243.654C249.815 216.123 255.885 217.608 261.351 220.452C266.816 223.295 271.516 227.414 275.053 232.458L381.129 383.912C389.95 396.51 403.529 403.987 419.727 403.987C444.446 403.987 465.626 383.411 465.626 358.056V253.634C465.626 232.898 482.426 216.1 503.164 216.1H507.302C507.92 216.101 508.531 215.98 509.102 215.745C509.673 215.509 510.191 215.163 510.628 214.727C511.065 214.29 511.411 213.772 511.647 213.202C511.884 212.631 512.005 212.02 512.004 211.402V112.8C512.005 112.182 511.884 111.571 511.648 111C511.412 110.43 511.066 109.911 510.63 109.475C510.193 109.038 509.675 108.692 509.104 108.456C508.533 108.22 507.922 108.099 507.305 108.1H502.4Z" fill="black"/>
</g>
<defs>
<clipPath id="clip0_440_9">
<rect width="512" height="512" fill="white"/>
</clipPath>
</defs>
</svg>
